# xmcd
#
# Track frame offsets:
#	150
#	14332
#	31378
#	47940
#	61815
#	78181
#	92018
#	110498
#	124316
#	139683
#	153441
#	167137
#	186665
#	202768
#	221573
#	236733
#	250171
#
# Disc length: 3553 seconds
#
# Revision: 1
# Processed by: cddbd v1.5.2PL0 Copyright (c) Steve Scherf et al.
# Submitted via: audiograbber 1.83.01
#
DISCID=eb0ddf11
DTITLE=Various Artist - COUNTRY MARCH 2015
DYEAR=2015
DGENRE=Country
TTITLE0=DENNY STRICKLAND - SWERVE ON
TTITLE1=TIM MCGRAW - DIAMOND RINGS
TTITLE2=BRAD PAISLEY - CRUSHIN IT
TTITLE3=KEITH URBAN - RAISE EM UP
TTITLE4=KIP MOORE - BEER MONEY
TTITLE5=PARMALEE - ALREADY CALLIN U MINE
TTITLE6=LEE ANN WOMACK - SEND IT ON DOWN
TTITLE7=CRAIG WAYNE BAND - MY BABYS SMILE LIVE
TTITLE8=ZAC BROWN BAND - HOMEGROWN
TTITLE9=AUSTIN WEBB - ALL COUNTRY ON U
TTITLE10=JASON CASSIDY - COWBOY GIRL
TTITLE11=KENNY CHESNEY - WILD CHILD
TTITLE12=BLACKBERRY SMOKE - PRETTY LITTLE LIE
TTITLE13=STEVE AZAR - THE SKY IS FALLING
TTITLE14=OLD DOMINION - BREAK UP WITH HIM
TTITLE15=KIP MOORE - SOMETHING ABOUT A TRUCK
TTITLE16=KIP MOORE - HEY PRETTY GIRL
EXTD=
EXTT0=
EXTT1=
EXTT2=
EXTT3=
EXTT4=
EXTT5=
EXTT6=
EXTT7=
EXTT8=
EXTT9=
EXTT10=
EXTT11=
EXTT12=
EXTT13=
EXTT14=
EXTT15=
EXTT16=
PLAYORDER=
